<svg xmlns="http://www.w3.org/2000/svg" width="16" height="16" viewBox="0 0 16 16" fill="none">
  <rect width="16" height="16" rx="3" fill="#25D366"/>
  <path d="M8 3C5.24 3 3 5.24 3 8C3 9.39 3.55 10.68 4.46 11.64L3.5 13L4.94 12.47C5.86 13.08 6.89 13.5 8 13.5C10.76 13.5 13 11.26 13 8.5C13 5.74 10.76 3 8 3ZM10.63 10.28C10.41 10.83 9.69 11.29 9.08 11.38C8.68 11.44 8.16 11.47 6.66 10.86C4.77 10.1 3.6 8.18 3.5 8.04C3.41 7.9 2.75 7.03 2.75 6.13C2.75 5.23 3.21 4.79 3.4 4.59C3.56 4.43 3.79 4.36 4.01 4.36C4.09 4.36 4.17 4.36 4.24 4.37C4.43 4.37 4.53 4.38 4.66 4.66C4.82 5.01 5.17 5.91 5.22 6.02C5.27 6.13 5.31 6.26 5.24 6.39C5.17 6.53 5.13 6.6 5.02 6.73C4.91 6.86 4.8 6.96 4.69 7.1C4.59 7.22 4.48 7.35 4.61 7.55C4.73 7.75 5.09 8.35 5.63 8.83C6.34 9.44 6.91 9.65 7.13 9.76C7.3 9.84 7.51 9.82 7.65 9.68C7.83 9.5 8.05 9.18 8.27 8.87C8.43 8.64 8.64 8.61 8.86 8.69C9.09 8.76 9.98 9.21 10.23 9.33C10.47 9.46 10.64 9.52 10.69 9.63C10.74 9.74 10.74 10.24 10.48 10.8H10.63V10.28Z" fill="white"/>
  <circle cx="11.5" cy="4.5" r="2.5" fill="#FF5252"/>
  <path d="M10.75 4.5C10.75 4.36193 10.8619 4.25 11 4.25H12C12.1381 4.25 12.25 4.36193 12.25 4.5C12.25 4.63807 12.1381 4.75 12 4.75H11C10.8619 4.75 10.75 4.63807 10.75 4.5Z" fill="white"/>
</svg>
