<svg xmlns="http://www.w3.org/2000/svg" width="128" height="128" viewBox="0 0 128 128" fill="none">
  <rect width="128" height="128" rx="20" fill="#25D366"/>
  <path d="M64 24C43.2 24 24 43.2 24 64C24 75.12 28.4 85.44 35.68 93.12L28 104L39.52 99.76C46.88 104.64 55.12 108 64 108C84.8 108 104 88.8 104 68C104 47.2 84.8 24 64 24ZM85.04 82.24C83.28 86.64 77.52 90.32 72.64 91.04C69.44 91.52 65.28 91.76 53.28 86.88C38.16 80.8 28.8 65.44 28 64.32C27.28 63.2 22 56.24 22 49.04C22 41.84 25.68 38.32 27.2 36.72C28.48 35.44 30.32 34.88 32.08 34.88C32.72 34.88 33.36 34.88 33.92 34.96C35.44 34.96 36.24 35.04 37.28 37.28C38.56 40.08 41.36 47.28 41.76 48.16C42.16 49.04 42.48 50.08 41.92 51.12C41.36 52.24 41.04 52.8 40.16 53.84C39.28 54.88 38.4 55.68 37.52 56.8C36.72 57.76 35.84 58.8 36.88 60.4C37.84 62 41.12 66.8 45.04 70.64C50.72 75.52 55.28 76.88 57.04 77.76C58.4 78.4 60.08 78.24 61.2 77.1C62.64 75.64 64.4 73.04 66.16 70.48C67.44 68.72 69.12 68.48 70.88 69.12C72.72 69.68 79.84 73.44 81.84 74.36C83.76 75.36 85.12 75.84 85.52 76.68C85.92 77.52 85.92 81.92 83.84 86.4H85.04V82.24Z" fill="white"/>
  <circle cx="92" cy="36" r="20" fill="#FF5252"/>
  <path d="M86 36C86 35.4477 86.4477 35 87 35H97C97.5523 35 98 35.4477 98 36C98 36.5523 97.5523 37 97 37H87C86.4477 37 86 36.5523 86 36Z" fill="white"/>
</svg>
