<svg xmlns="http://www.w3.org/2000/svg" width="48" height="48" viewBox="0 0 48 48" fill="none">
  <rect width="48" height="48" rx="8" fill="#25D366"/>
  <path d="M24 9C15.72 9 9 15.72 9 24C9 28.17 10.65 32.04 13.38 34.92L10.5 39L14.82 37.41C17.58 39.24 20.67 40.5 24 40.5C32.28 40.5 39 33.78 39 25.5C39 17.22 32.28 9 24 9ZM31.89 30.84C31.23 32.49 29.07 33.87 27.24 34.14C26.04 34.32 24.48 34.41 19.98 32.58C14.31 30.3 10.8 24.54 10.5 24.12C10.23 23.7 8.25 21.09 8.25 18.39C8.25 15.69 9.63 14.37 10.2 13.77C10.68 13.29 11.37 13.08 12.03 13.08C12.27 13.08 12.51 13.08 12.72 13.11C13.29 13.11 13.59 13.14 13.98 13.98C14.46 15.03 15.51 17.73 15.66 18.06C15.81 18.39 15.93 18.78 15.72 19.17C15.51 19.59 15.39 19.8 15.06 20.19C14.73 20.58 14.4 20.88 14.07 21.3C13.77 21.66 13.44 22.05 13.83 22.65C14.19 23.25 15.27 25.05 16.89 26.49C19.02 28.32 20.73 28.95 21.39 29.28C21.9 29.52 22.53 29.46 22.95 29.04C23.49 28.5 24.15 27.54 24.81 26.61C25.29 25.92 25.92 25.83 26.58 26.07C27.27 26.28 29.94 27.63 30.69 27.99C31.41 28.38 31.92 28.56 32.07 28.89C32.22 29.22 32.22 30.72 31.44 32.4H31.89V30.84Z" fill="white"/>
  <circle cx="34.5" cy="13.5" r="7.5" fill="#FF5252"/>
  <path d="M32 13.5C32 13.2239 32.2239 13 32.5 13H36.5C36.7761 13 37 13.2239 37 13.5C37 13.7761 36.7761 14 36.5 14H32.5C32.2239 14 32 13.7761 32 13.5Z" fill="white"/>
</svg>
